<?xml version="1.0" encoding="utf-8"?>
<!-- Generator: Adobe Illustrator 21.1.0, SVG Export Plug-In . SVG Version: 6.00 Build 0)  -->
<svg version="1.1" id="_x32_" xmlns="http://www.w3.org/2000/svg" xmlns:xlink="http://www.w3.org/1999/xlink" x="0px" y="0px"
	 viewBox="0 0 128 129" style="enable-background:new 0 0 128 129;" xml:space="preserve">
<style type="text/css">
	.st0{fill:#7FA6BA;}
	.st1{fill:#001A57;}
</style>
<g>
	<rect class="st0" width="128" height="129"/>
	<ellipse class="st1" cx="69.757" cy="65.136" rx="13.724" ry="13.677"/>
	<ellipse class="st1" cx="109.151" cy="76.2" rx="8.286" ry="8.258"/>
	<path class="st1" d="M128,13.781v16.516c-4.566-0.012-8.265-3.705-8.265-8.258C119.735,17.486,123.434,13.793,128,13.781z"/>
	<g>
		<path class="st1" d="M8.309,22.039c0,4.561-3.71,8.258-8.287,8.258H0V13.781h0.022C4.598,13.781,8.309,17.479,8.309,22.039z"/>
	</g>
	<ellipse class="st1" cx="23.405" cy="98.942" rx="12.171" ry="12.129"/>
	<path class="st1" d="M107.142,123.084c0,2.1-0.431,4.1-1.209,5.916H78.079c-0.778-1.816-1.209-3.816-1.209-5.916
		c0-8.331,6.776-15.084,15.136-15.084C100.365,108,107.142,114.753,107.142,123.084z"/>
	<path class="st1" d="M105.933,0c-2.309,5.39-7.675,9.167-13.927,9.167C85.754,9.167,80.387,5.39,78.079,0H105.933z"/>
	<ellipse class="st1" cx="39.227" cy="26.426" rx="12.43" ry="12.387"/>
</g>
</svg>
